<svg width="256" height="256" viewBox="0 0 256 256" fill="none" xmlns="http://www.w3.org/2000/svg">
<path fill-rule="evenodd" clip-rule="evenodd" d="M15 52C15 32.1178 31.1178 16 51 16H205C224.882 16 241 32.1178 241 52V206C241 225.882 224.882 242 205 242H51C31.1178 242 15 225.882 15 206V52ZM135.686 144.789V203H105V102.311H134.246V120.076H135.542C137.992 114.22 142.097 109.587 147.86 106.179C153.623 102.726 160.61 101 168.822 101C176.506 101 183.205 102.53 188.919 105.589C194.634 108.648 199.076 113.018 202.246 118.699C205.415 124.337 207 131.067 207 138.889V203H176.314V143.871C176.362 137.71 174.633 132.902 171.127 129.45C167.621 125.954 162.795 124.206 156.648 124.206C152.518 124.206 148.869 125.014 145.699 126.631C142.578 128.248 140.129 130.608 138.352 133.711C136.623 136.77 135.734 140.463 135.686 144.789ZM53.2522 103L53.2522 202.5H86.5913L86.5913 103H53.2522ZM57.2435 82.5561C60.7913 85.8152 65.0435 87.4448 70 87.4448C74.9565 87.4448 79.1826 85.8152 82.6783 82.5561C86.2261 79.2453 88 75.2878 88 70.6836C88 66.1312 86.2261 62.2254 82.6783 58.9663C79.1826 55.6554 74.9565 54 70 54C65.0435 54 60.7913 55.6554 57.2435 58.9663C53.7478 62.2254 52 66.1312 52 70.6836C52 75.2878 53.7478 79.2453 57.2435 82.5561Z" fill="white"/>
</svg>
