<svg width="256" height="256" viewBox="0 0 256 256" fill="none" xmlns="http://www.w3.org/2000/svg">
<path fill-rule="evenodd" clip-rule="evenodd" d="M128 16C65.5918 16 15 66.5918 15 129C15 191.408 65.5918 242 128 242C190.408 242 241 191.408 241 129C241 66.5918 190.408 16 128 16ZM58.2242 78.1532C55.9261 75.855 56.75 72 60 72H196C199.25 72 200.074 75.855 197.776 78.1532L131.536 144.393C129.583 146.346 126.417 146.346 124.464 144.393L58.2242 78.1532ZM44.0834 86.3566C44.4189 83.0677 48.3759 82.447 50.7137 84.7847L124.464 158.536C126.417 160.488 129.583 160.488 131.536 158.536L205.286 84.7847C207.624 82.447 211.581 83.0677 211.917 86.3566C211.972 86.8969 212 87.4452 212 88V170C212 178.837 204.837 186 196 186H60C51.1634 186 44 178.837 44 170V88C44 87.4452 44.0282 86.8969 44.0834 86.3566Z" fill="white"/>
</svg>
