<svg width="256" height="256" viewBox="0 0 256 256" fill="none" xmlns="http://www.w3.org/2000/svg">
<path fill-rule="evenodd" clip-rule="evenodd" d="M128 16C65.5918 16 15 66.5918 15 129C15 191.408 65.5918 242 128 242C190.408 242 241 191.408 241 129C241 66.5918 190.408 16 128 16ZM120.451 160.889C115.937 164.333 109.578 162.514 106.066 158.054C104.009 155.441 101.924 153.15 100.126 151.309C97.5309 148.653 93.2721 149.39 91.4156 152.605L68.8424 191.703C66.9859 194.919 68.4774 198.975 72.0749 199.895C76.8809 201.123 83.6671 202.434 90.5087 202.349C91.4377 202.337 92.3627 202.454 93.2858 202.572C93.4802 202.596 93.6745 202.621 93.8687 202.644C95.2395 202.81 96.6201 202.68 97.8914 202.216L119.27 194.416C164.921 177.761 188.102 137.611 179.7 89.7476L177.083 74.8369C176.995 72.6359 176.583 70.4396 175.932 68.2831L175.766 67.3339C175.597 66.3714 175.248 65.4466 174.756 64.5911C174.681 64.4608 174.605 64.3308 174.529 64.2008C174.265 63.7488 174.001 63.2966 173.772 62.8259C170.382 55.8407 165.077 49.6554 161.142 45.6271C158.547 42.9712 154.288 43.7077 152.431 46.9233L129.858 86.0212C128.002 89.2368 129.493 93.2932 133.091 94.2125C135.541 94.8386 138.506 95.4863 141.731 95.9596C147.303 96.7775 152.012 101.328 151.332 106.919C148.673 128.778 137.925 147.555 120.451 160.889Z" fill="white"/>
</svg>
