<svg width="2047" height="2613" viewBox="0 0 2047 2613" fill="none" xmlns="http://www.w3.org/2000/svg">
<circle cx="1066" cy="962" r="135" stroke="white" stroke-width="10"/>
<circle cx="796" cy="1799" r="208" stroke="white" stroke-width="10"/>
<circle cx="1834" cy="543" r="50" stroke="white" stroke-width="10"/>
<path d="M1791.64 564.583C1735.26 590.868 1671.11 595.192 1611.72 576.709C1552.32 558.226 1501.95 518.265 1470.44 464.632C1438.94 410.998 1428.55 347.545 1441.33 286.666C1454.1 225.788 1489.11 171.858 1539.52 135.41C1589.92 98.9628 1652.11 82.6165 1713.92 89.5642C1775.74 96.5119 1832.74 126.255 1873.8 172.982C1914.86 219.71 1937.02 280.066 1935.96 342.261C1934.9 404.456 1910.69 464.022 1868.07 509.323" stroke="white" stroke-width="10"/>
<circle cx="1144" cy="1439" r="48" stroke="white" stroke-width="10"/>
<circle cx="1066" cy="962" r="156" stroke="white" stroke-width="10"/>
<circle cx="796" cy="1799" r="240" stroke="white" stroke-width="10"/>
<path d="M1339.05 1344.73C1437.46 1462.37 1495 1608.78 1503.03 1761.95C1511.06 1915.11 1469.13 2066.74 1383.56 2194.02C1297.98 2321.3 1173.39 2417.35 1028.53 2467.73C883.661 2518.1 726.355 2520.07 580.274 2473.33C434.194 2426.6 307.238 2333.7 218.508 2208.59C129.778 2083.49 84.0715 1932.96 88.2646 1779.64C92.4578 1626.33 146.324 1478.52 241.759 1358.45C337.195 1238.39 469.038 1152.56 617.455 1113.88" stroke="white" stroke-width="10"/>
<path d="M1110.34 1404.79C995.342 1416.3 880.373 1382.62 789.762 1310.88C699.152 1239.14 640.008 1134.95 624.846 1020.38C609.684 905.803 639.693 789.823 708.524 696.98C777.354 604.137 879.606 541.714 993.643 522.922C1107.68 504.129 1224.55 530.441 1319.54 596.289C1414.52 662.136 1480.15 762.355 1502.56 875.737C1524.96 989.119 1502.38 1106.77 1439.58 1203.8C1376.78 1300.82 1278.7 1369.61 1166.08 1395.6" stroke="white" stroke-width="10"/>
<path d="M1099.15 1432.33C978.159 1440.86 858.532 1402.43 765.141 1325.03C671.749 1247.64 611.777 1137.23 597.692 1016.75C583.607 896.279 616.492 775.012 689.511 678.159C762.53 581.306 870.066 516.319 989.764 496.707C1109.46 477.095 1232.11 504.367 1332.22 572.853C1432.33 641.34 1502.2 745.773 1527.29 864.442C1552.39 983.111 1530.79 1106.89 1466.98 1210.04C1403.17 1313.19 1302.06 1387.79 1184.67 1418.32" stroke="white" stroke-width="10"/>
<path d="M1175.5 853.5L1509 512.5" stroke="white" stroke-width="10"/>
</svg>
