<svg width="200" height="200" viewBox="0 0 200 200" fill="none" xmlns="http://www.w3.org/2000/svg">
<path d="M108.92 44.9186L146.163 82.1798C148.54 84.5574 152.601 82.8717 152.601 79.5151V51.8968C152.601 50.8957 152.204 49.9388 151.497 49.2321L114.254 11.9636C111.878 9.586 107.817 11.2717 107.817 14.6283V42.2539C107.817 43.255 108.214 44.212 108.92 44.9186Z" fill="white" stroke="white" stroke-width="3" stroke-linecap="round" stroke-linejoin="round"/>
<path d="M130.264 95.6799L146.171 111.594C148.547 113.972 152.608 112.286 152.608 108.93C152.608 107.929 152.211 106.972 151.505 106.265L135.598 90.3505C133.222 87.9729 129.161 89.6586 129.161 93.0152C129.161 94.0163 129.558 94.9732 130.264 95.6799Z" fill="white" stroke="white" stroke-width="3" stroke-linecap="round" stroke-linejoin="round"/>
<path d="M71.3979 64.2043L90.5271 45.0658C91.2334 44.3592 91.6307 43.4023 91.6307 42.4012V14.6283C91.6307 11.2643 87.5694 9.58601 85.193 11.9636L47.95 49.2248C47.2437 49.9314 46.8464 50.8884 46.8464 51.8895V135.304C46.8464 136.305 47.2437 137.262 47.95 137.969L63.8566 153.883C66.2331 156.261 70.2943 154.575 70.2943 151.218V66.869C70.2943 65.8679 70.6916 64.911 71.3979 64.2043Z" fill="white" stroke="white" stroke-width="3" stroke-linecap="round" stroke-linejoin="round"/>
<path d="M111.871 70.9101L102.395 61.4292C100.923 59.957 98.5319 59.957 97.0605 61.4292L87.5842 70.9101C86.8779 71.6167 86.4806 72.5737 86.4806 73.5747V174.957C86.4806 175.958 86.8779 176.915 87.5842 177.622L97.0605 187.103C98.5319 188.575 100.923 188.575 102.395 187.103L111.871 177.622C112.577 176.915 112.974 175.958 112.974 174.957V73.5747C112.974 72.5737 112.577 71.6167 111.871 70.9101Z" fill="white" stroke="white" stroke-width="3" stroke-linecap="round" stroke-linejoin="round"/>
<path d="M128.673 119.573V151.095C128.673 154.776 133.06 156.613 135.626 154.011L151.246 138.082C152.774 136.524 152.77 134.027 151.237 132.473L135.626 116.649C133.06 114.047 128.673 115.891 128.673 119.565V119.573Z" fill="white" stroke="white" stroke-width="3" stroke-linecap="round" stroke-linejoin="round"/>
</svg>
