<svg width="758" height="758" viewBox="0 0 758 758" fill="none" xmlns="http://www.w3.org/2000/svg">
<path d="M412.808 170.241L553.959 311.461C562.965 320.472 578.357 314.083 578.357 301.362V196.688C578.357 192.894 576.852 189.267 574.175 186.589L433.024 45.3414C424.017 36.3303 408.625 42.719 408.625 55.4405V160.142C408.625 163.936 410.131 167.563 412.808 170.241Z" stroke="white" stroke-width="10" stroke-linecap="round" stroke-linejoin="round"/>
<path d="M493.701 362.626L553.987 422.942C562.994 431.953 578.386 425.564 578.386 412.843C578.386 409.049 576.88 405.422 574.203 402.744L513.917 342.428C504.911 333.417 489.518 339.806 489.518 352.527C489.518 356.322 491.024 359.948 493.701 362.626Z" stroke="white" stroke-width="10" stroke-linecap="round" stroke-linejoin="round"/>
<path d="M270.598 243.334L343.098 170.799C345.774 168.121 347.28 164.494 347.28 160.7V55.4405C347.28 42.6911 331.888 36.3304 322.881 45.3414L181.731 186.561C179.054 189.24 177.548 192.866 177.548 196.66V512.801C177.548 516.595 179.054 520.222 181.731 522.9L242.017 583.216C251.023 592.227 266.415 585.838 266.415 573.117V253.433C266.415 249.639 267.921 246.012 270.598 243.334Z" stroke="white" stroke-width="10" stroke-linecap="round" stroke-linejoin="round"/>
<path d="M423.99 268.748L388.075 232.816C382.499 227.236 373.436 227.236 367.859 232.816L331.944 268.748C329.267 271.426 327.761 275.053 327.761 278.847V663.087C327.761 666.881 329.267 670.508 331.944 673.186L367.859 709.119C373.436 714.699 382.499 714.699 388.075 709.119L423.99 673.186C426.667 670.508 428.173 666.881 428.173 663.087V278.847C428.173 275.053 426.667 271.426 423.99 268.748Z" stroke="white" stroke-width="10" stroke-linecap="round" stroke-linejoin="round"/>
<path d="M487.67 453.181V572.649C487.67 586.602 504.296 593.563 514.024 583.702L576.774 519.709C580.595 515.811 580.586 509.57 576.753 505.684L514.024 442.098C504.296 432.236 487.67 439.228 487.67 453.15V453.181Z" stroke="white" stroke-width="10" stroke-linecap="round" stroke-linejoin="round"/>
</svg>
