<svg width="2307" height="3272" viewBox="0 0 2307 3272" fill="none" xmlns="http://www.w3.org/2000/svg">
<path d="M1359.87 2524.75C1321.92 2558.34 1273.01 2576.92 1222.33 2577C1171.64 2577.08 1122.67 2558.65 1084.62 2525.18C1046.56 2491.7 1022.04 2445.48 1015.66 2395.2C1009.27 2344.92 1021.47 2294.04 1049.95 2252.12C1078.43 2210.19 1121.24 2180.11 1170.33 2167.52C1219.43 2154.93 1271.43 2160.7 1316.57 2183.74C1361.71 2206.79 1396.89 2245.52 1415.49 2292.67C1434.09 2339.82 1434.83 2392.13 1417.58 2439.79" stroke="white" stroke-width="10"/>
<path d="M1561.66 1740.97C1713.49 1823.08 1830.43 1957.42 1890.84 2119.11C1951.25 2280.8 1951.05 2458.9 1890.26 2620.45C1829.47 2782.01 1712.22 2916.07 1560.2 2997.83C1408.18 3079.58 1231.69 3103.51 1063.4 3065.16" stroke="white" stroke-width="10"/>
<path d="M820.599 2959.49C663.992 2853.03 556.09 2688.72 520.63 2502.71" stroke="white" stroke-width="10"/>
<path d="M508.845 2403.73C501.656 2256.07 540.474 2109.83 619.942 1985.18" stroke="white" stroke-width="10"/>
<path d="M1020.12 1684.14C1164.55 1641.56 1318.74 1645.74 1460.65 1696.07" stroke="white" stroke-width="10"/>
<circle cx="796" cy="1799" r="121" stroke="white" stroke-width="10"/>
<circle cx="943" cy="1989" r="51" stroke="white" stroke-width="10"/>
<circle cx="1401" cy="2489" r="51" stroke="white" stroke-width="10"/>
<circle cx="1511" cy="1713" r="51" stroke="white" stroke-width="10"/>
<circle cx="508" cy="2454" r="51" stroke="white" stroke-width="10"/>
<circle cx="1222" cy="2369" r="70" stroke="white" stroke-width="10"/>
<circle cx="935" cy="3022" r="74" stroke="white" stroke-width="10"/>
<circle cx="935" cy="3022" r="127" stroke="white" stroke-width="10"/>
<circle cx="1834" cy="542.997" r="50" stroke="white" stroke-width="10"/>
<path d="M1791.64 564.583C1735.26 590.868 1671.11 595.192 1611.72 576.709C1552.32 558.226 1501.95 518.265 1470.44 464.632C1438.94 410.998 1428.56 347.545 1441.33 286.666C1454.1 225.788 1489.11 171.858 1539.52 135.41C1589.92 98.9628 1652.11 82.6165 1713.92 89.5642C1775.74 96.5119 1832.74 126.255 1873.8 172.982C1914.86 219.71 1937.02 280.066 1935.96 342.261C1934.9 404.456 1910.7 464.022 1868.07 509.323" stroke="white" stroke-width="10"/>
<circle cx="1144" cy="1439" r="48" stroke="white" stroke-width="10"/>
<circle cx="1066" cy="962.003" r="156" stroke="white" stroke-width="10"/>
<path d="M904.231 2023.25C848.76 2050.02 785.334 2055.29 726.209 2038.02C667.084 2020.76 616.456 1982.19 584.106 1929.78C551.757 1877.36 539.983 1814.82 551.059 1754.23C562.135 1693.64 595.275 1639.3 644.075 1601.72C692.876 1564.14 753.873 1545.98 815.282 1550.75C876.692 1555.52 934.153 1582.88 976.566 1627.55C1018.98 1672.21 1043.33 1731.01 1044.92 1792.59C1046.5 1854.16 1025.21 1914.14 985.159 1960.93" stroke="white" stroke-width="10"/>
<path d="M470.83 2427.91C343.588 2362.12 239.294 2259.29 171.723 2132.98C104.152 2006.68 76.4818 1862.85 92.3669 1720.49C108.252 1578.13 166.945 1443.93 260.695 1335.63C354.445 1227.33 478.841 1150.01 617.455 1113.88" stroke="white" stroke-width="10"/>
<path d="M1034.68 2465.56C881.653 2520.35 714.434 2520.83 561.101 2466.9" stroke="white" stroke-width="10"/>
<path d="M1503.1 1763.24C1511.31 1925.57 1463.41 2085.79 1367.45 2216.98" stroke="white" stroke-width="10"/>
<path d="M1343.01 1349.5C1417.75 1440.46 1468.63 1548.62 1491.05 1664.19" stroke="white" stroke-width="10"/>
<path d="M1099.15 1432.33C978.16 1440.86 858.533 1402.43 765.141 1325.03C671.75 1247.63 611.778 1137.22 597.693 1016.75C583.607 896.276 616.492 775.009 689.511 678.156C762.53 581.303 870.066 516.316 989.764 496.704C1109.46 477.092 1232.11 504.364 1332.22 572.85C1432.33 641.337 1502.2 745.77 1527.29 864.439C1552.39 983.108 1530.79 1106.88 1466.98 1210.04C1403.17 1313.19 1302.06 1387.79 1184.67 1418.32" stroke="white" stroke-width="10"/>
<path d="M684.584 1746.5C580.142 1695.72 486.891 1624.59 410.3 1537.3C333.709 1450 275.32 1348.29 238.558 1238.13C201.795 1127.98 187.399 1011.58 196.214 895.787C205.029 779.99 236.878 667.12 289.892 563.794C342.906 460.469 416.018 368.77 504.941 294.075C593.863 219.379 696.806 163.192 807.731 128.808C918.655 94.4237 1035.33 82.5351 1150.91 93.8393C1266.49 105.143 1378.65 139.413 1480.81 194.637" stroke="white" stroke-width="10"/>
<path d="M1463.93 1738.25C1295.58 1824.55 1103.73 1853.78 917.315 1821.54" stroke="white" stroke-width="10"/>
<path d="M1855.32 590.668C1943.79 778.734 1962.21 992.211 1907.26 1192.65C1852.3 1393.09 1727.58 1567.33 1555.56 1683.97" stroke="white" stroke-width="10"/>
<path d="M1175.5 853.497L1509 512.497" stroke="white" stroke-width="10"/>
<path d="M1181 2315.5L972 2032.5" stroke="white" stroke-width="10"/>
<path d="M829.5 1682.5L1015.5 1112" stroke="white" stroke-width="10"/>
<path d="M1111 1108.5L1139 1394" stroke="white" stroke-width="10"/>
<path d="M1148.5 1487L1216 2300" stroke="white" stroke-width="10"/>
<path d="M990 2908.5L1192.5 2434" stroke="white" stroke-width="10"/>
</svg>
